<?xml version='1.0' encoding='ascii'?>
<svg xmlns="http://www.w3.org/2000/svg" height="500" version="1.1" width="1920">
    <g id="View Layer_LineSet" inkscape:groupmode="lineset" inkscape:label="View Layer_LineSet" xmlns:inkscape="http://www.inkscape.org/namespaces/inkscape">
        <g id="strokes" inkscape:groupmode="layer" inkscape:label="strokes" xmlns:inkscape="http://www.inkscape.org/namespaces/inkscape">
            <path d=" M 1920.262, 22.098 1910.265, 22.337 1904.546, 22.474 1894.554, 22.867 1888.854, 23.091 1878.868, 23.633 1873.183, 23.941 1863.207, 24.627 1857.535, 25.016 1847.569, 25.840 1841.909, 26.308 1831.955, 27.266 1826.303, 27.809 1816.362, 28.894 1810.719, 29.511 1800.792, 30.719 1795.155, 31.405 1785.243, 32.731 1779.611, 33.484 1769.715, 34.922 1764.087, 35.740 1754.207, 37.285 1748.582, 38.164 1738.719, 39.811 1733.096, 40.750 1723.249, 42.492 1717.629, 43.487 1707.799, 45.321 1702.181, 46.370 1692.367, 48.290 1686.750, 49.389 1676.952, 51.389 1671.337, 52.536 1661.555, 54.612 1655.941, 55.804 1646.174, 57.951 1640.562, 59.184 1630.810, 61.396 1625.199, 62.669 1615.461, 64.942 1609.853, 66.250 1600.127, 68.578 1594.522, 69.920 1584.809, 72.298 1579.207, 73.670 1569.505, 76.093 1563.906, 77.492 1554.215, 79.956 1548.621, 81.378 1538.938, 83.878 1533.349, 85.321 1523.675, 87.851 1518.092, 89.312 1508.424, 91.868 1502.848, 93.343 1493.186, 95.920 1487.617, 97.406 1477.959, 100.000 1472.399, 101.493 1462.744, 104.099 1457.193, 105.597 1447.541, 108.209 1442.000, 109.708 1432.348, 112.322 1426.818, 113.819 1417.165, 116.430 1411.648, 117.923 1401.993, 120.526 1396.489, 122.010 1386.830, 124.600 1381.340, 126.073 1371.677, 128.646 1366.201, 130.104 1356.532, 132.655 1351.073, 134.095 1341.396, 136.618 1335.954, 138.037 1326.269, 140.528 1320.844, 141.924 1311.150, 144.378 1305.743, 145.746 1296.038, 148.157 1290.650, 149.496 1280.933, 151.860 1275.565, 153.165 1265.836, 155.476 1260.488, 156.747 1250.745, 159.000 1245.419, 160.231 1235.661, 162.421 1230.356, 163.612 1220.583, 165.733 1215.300, 166.880 1205.512, 168.927 1200.250, 170.027 1190.446, 171.995 1185.206, 173.046 1175.385, 174.928 1170.167, 175.928 1160.329, 177.720 1155.134, 178.666 1145.279, 180.361 1140.105, 181.251 1130.233, 182.844 1125.081, 183.676 1115.192, 185.161 1110.061, 185.932 1100.156, 187.303 1095.045, 188.011 1085.123, 189.263 1080.031, 189.905 1070.095, 191.032 1065.021, 191.607 1055.071, 192.602 1050.013, 193.107 1040.050, 193.965 1035.008, 194.399 1025.033, 195.114 1020.004, 195.474 1010.020, 196.040 1005.002, 196.325 995.010, 196.736 990.000, 196.942 980.004, 197.192 975.000, 197.318 965.000, 197.403 960.000, 197.445 950.000, 197.360 945.000, 197.318 935.003, 197.067 930.000, 196.942 920.008, 196.531 915.000, 196.325 905.016, 195.759 900.000, 195.474 890.026, 194.760 885.000, 194.399 875.037, 193.541 870.000, 193.107 860.050, 192.112 855.000, 191.607 845.064, 190.480 840.000, 189.905 830.079, 188.652 825.000, 188.011 815.095, 186.638 810.000, 185.932 800.111, 184.445 795.000, 183.676 785.128, 182.080 780.000, 181.251 770.145, 179.553 765.000, 178.666 755.162, 176.871 750.000, 175.928 740.180, 174.041 735.000, 173.046 725.197, 171.073 720.000, 170.027 710.213, 167.974 705.000, 166.880 695.229, 164.751 690.000, 163.612 680.245, 161.413 675.000, 160.231 665.259, 157.969 660.000, 156.747 650.273, 154.424 645.000, 153.165 635.286, 150.789 630.000, 149.496 620.299, 147.071 615.000, 145.746 605.310, 143.277 600.000, 141.924 590.320, 139.416 585.000, 138.037 575.328, 135.495 570.000, 134.095 560.336, 131.524 555.000, 130.104 545.343, 127.509 540.000, 126.073 530.348, 123.458 525.000, 122.010 515.352, 119.381 510.000, 117.923 500.354, 115.284 495.000, 113.819 485.356, 111.176 480.000, 109.708 470.356, 107.064 465.000, 105.597 455.354, 102.958 450.000, 101.493 440.352, 98.864 435.000, 97.406 425.348, 94.791 420.000, 93.343 410.343, 90.748 405.000, 89.312 395.336, 86.741 390.000, 85.321 380.328, 82.779 375.000, 81.378 365.320, 78.870 360.000, 77.492 350.310, 75.023 345.000, 73.670 335.299, 71.244 330.000, 69.920 320.286, 67.543 315.000, 66.250 305.273, 63.928 300.000, 62.669 290.259, 60.406 285.000, 59.184 275.245, 56.986 270.000, 55.804 260.229, 53.675 255.000, 52.536 245.213, 50.482 240.000, 49.389 230.197, 47.416 225.000, 46.370 215.180, 44.483 210.000, 43.487 200.163, 41.692 195.000, 40.750 185.145, 39.051 180.000, 38.164 170.128, 36.569 165.000, 35.740 155.111, 34.253 150.000, 33.484 140.095, 32.111 135.000, 31.405 125.079, 30.152 120.000, 29.511 110.064, 28.383 105.000, 27.809 95.050, 26.814 90.000, 26.308 80.037, 25.450 75.000, 25.016 65.026, 24.302 60.000, 23.941 50.016, 23.375 45.000, 23.091 35.008, 22.680 30.000, 22.474 20.003, 22.223 15.000, 22.098 5.000, 22.013 0.000, 21.971 -10.000, 22.055 -15.000, 22.098 " fill="none" stroke="rgb(0, 0, 0)" stroke-linecap="butt" stroke-linejoin="round" stroke-opacity="1.0" stroke-width="3.0" />
        </g>
    </g>
</svg>
